PathFileType	4	(X/Y/Z)	HSS_squat4.trc
DataRate	CameraRate	NumFrames	NumMarkers	Units	OrigDataRate	OrigDataStartFrame	OrigNumFrames
120.0	120.0	5	44	mm	120.0	730	973
Frame#	Time		R.Shoulder		Offset		L.Shoulder		R.Elbow		R.Wrist.Radial		R.Wrist		R.Hand		L.Elbow		L.Wrist.Radial		L.Wrist		L.Hand		R.Hip		V.Sacral		L.PSIS		L.Hip		R.Thigh.Upper		R.Thigh.Front		R.Thigh.Rear		X.Shell.Lower.Thigh.Right		R.Knee.Lateral		R.Shank.Upper		R.Shank.Front		R.Shank.Rear		X.Shell.Lower.Shank.Right		R.Ankle.Lateral		R.Heel		R.Toe		L.Thigh.Upper		L.Thigh.Front		L.Thigh.Rear		X.Shell.Lower.Thigh.Left		L.Knee.Lateral		L.Shank.Upper		L.Shank.Front		L.Shank.Rear		X.Shell.Lower.Shank.Left		L.Ankle.Lateral		L.Heel		L.Toe		R.Troc		L.Troc		R.PSIS		L.ASIS		R.ASIS
			X1	Y1	Z1	X2	Y2	Z2	X3	Y3	Z3	X4	Y4	Z4	X5	Y5	Z5	X6	Y6	Z6	X7	Y7	Z7	X8	Y8	Z8	X9	Y9	Z9	X10	Y10	Z10	X11	Y11	Z11	X12	Y12	Z12	X13	Y13	Z13	X14	Y14	Z14	X15	Y15	Z15	X16	Y16	Z16	X17	Y17	Z17	X18	Y18	Z18	X19	Y19	Z19	X20	Y20	Z20	X21	Y21	Z21	X22	Y22	Z22	X23	Y23	Z23	X24	Y24	Z24	X25	Y25	Z25	X26	Y26	Z26	X27	Y27	Z27	X28	Y28	Z28	X29	Y29	Z29	X30	Y30	Z30	X31	Y31	Z31	X32	Y32	Z32	X33	Y33	Z33	X34	Y34	Z34	X35	Y35	Z35	X36	Y36	Z36	X37	Y37	Z37	X38	Y38	Z38	X39	Y39	Z39	X40	Y40	Z40	X41	Y41	Z41	X42	Y42	Z42	X43	Y43	Z43	X44	Y44	Z44

730	6.07500	119.86283	988.00464	-201.94826	-159.66119	934.56305	-61.86952	-194.66548	996.82666	-206.27693	270.75787	834.39355	-469.81540	61.79071	905.85748	-624.84613	110.36970	941.79620	-666.51514	28.32969	949.47699	-700.38953	-345.46222	867.57648	-486.25134	-124.83613	907.64551	-633.00507	-169.77808	953.62213	-666.46851	-85.54509	945.39441	-697.21729	110.19546	615.30206	20.62145	-34.86996	633.94269	162.48601	-73.42999	643.17896	152.92279	-188.11771	616.19958	33.64828	191.44461	541.43494	-110.44411	181.50613	567.19824	-155.24242	212.58781	515.37054	-141.35992	200.97160	535.77380	-181.61308	208.64432	445.20190	-271.39005	253.98499	327.82831	-243.67014	230.65935	276.85635	-251.08211	239.47595	308.63379	-199.25172	230.52866	262.15332	-204.09642	185.15921	71.66923	-92.79500	133.99728	34.87250	-44.59669	202.11861	34.66872	-235.28925	-242.40343	544.05463	-116.69205	-228.67722	556.03290	-171.31006	-264.11285	510.82407	-144.99323	-257.41879	531.31134	-184.41451	-246.84399	437.64648	-282.10342	-286.42477	282.24033	-207.22174	-269.23181	248.72342	-222.01262	-273.51694	259.46515	-162.32925	-276.37900	222.27094	-170.59071	-235.43462	72.78813	-107.39848	-187.21503	37.37368	-45.43071	-243.18073	33.74986	-241.22348	145.22684	579.77655	52.62392	-227.31715	573.42419	67.17950	6.47237	641.72620	152.03403	-146.58031	578.00720	-9.51515	74.53592	579.83917	-14.63046
731	6.08333	120.05455	993.29688	-201.31973	-159.58310	939.61035	-61.45683	-194.64607	1002.19464	-205.67036	270.95425	839.53595	-469.17645	61.85776	910.85834	-624.54498	110.58702	946.79956	-665.88416	28.60949	954.41870	-699.68951	-345.47675	873.07831	-485.71844	-126.44905	912.26019	-632.75177	-169.51807	958.76495	-665.94580	-85.31979	950.49506	-696.88116	110.38112	619.78540	20.12652	-34.59462	639.08240	161.88593	-73.36024	648.24786	152.39253	-187.97037	620.51599	33.02252	191.68282	543.68445	-110.94975	181.87973	569.06372	-156.08755	212.88231	517.15167	-141.73749	201.24889	537.14941	-182.09630	208.66055	445.63666	-270.90906	254.07068	328.05026	-243.22223	230.71233	277.02231	-250.74768	239.56775	308.76486	-198.95505	230.58110	262.25906	-203.85185	185.26019	71.62482	-92.81149	134.02470	34.85263	-44.59504	202.15797	34.64431	-235.28873	-242.08345	546.48096	-117.17336	-228.40524	557.86127	-171.97301	-263.80151	512.82806	-145.37854	-257.19702	532.98065	-184.80214	-246.45978	438.07132	-281.62109	-286.20483	282.43420	-206.89288	-269.08438	248.95572	-221.65491	-273.45706	259.61002	-162.07291	-276.23428	222.45107	-170.28520	-235.52306	72.80441	-107.35487	-187.33185	37.33842	-45.39388	-243.18420	33.79148	-241.17787	145.52893	584.12823	51.99954	-227.26805	577.93884	66.49238	6.60714	646.80780	151.52205	-146.25717	582.14056	-9.79929	74.30558	583.34192	-14.95498
732	6.09167	120.31418	998.67334	-200.64618	-159.36758	944.77716	-60.97814	-194.49910	1007.55536	-205.12947	271.14932	844.91797	-468.58975	61.80673	916.16919	-623.65387	110.71093	951.91479	-665.38074	28.71150	959.56219	-699.17029	-345.41641	878.62756	-485.37704	-125.58037	917.61603	-632.16193	-169.26024	964.01813	-665.50360	-85.09904	955.52014	-696.39197	110.37653	624.08374	19.48172	-34.40752	644.28595	161.34912	-73.25836	653.32050	151.69727	-187.83530	624.88422	32.31506	191.98314	546.10693	-111.31376	182.27635	570.88898	-156.97585	213.18106	519.10980	-141.88570	201.59743	538.80939	-182.48817	208.70868	446.03406	-270.51392	254.14697	328.30197	-242.71819	230.80441	277.25256	-250.47493	239.65918	308.88150	-198.71144	230.74173	262.42883	-203.61218	185.32632	71.58660	-92.77088	134.08792	34.83041	-44.61443	202.17947	34.60172	-235.33954	-241.89388	548.79608	-117.77406	-228.09351	559.73004	-172.69240	-263.61542	514.87537	-145.57280	-256.89896	534.55792	-185.39165	-245.92877	438.58408	-281.26263	-285.95331	282.70053	-206.55524	-268.93900	249.15776	-221.27689	-273.29324	259.78012	-161.71123	-276.14786	222.63791	-169.95596	-235.61723	72.82577	-107.31400	-187.48323	37.29417	-45.36883	-243.21678	33.86376	-241.15686	145.79250	588.25861	51.45997	-227.20778	582.40845	65.90839	6.87631	651.98291	150.87909	-145.99236	586.34290	-10.22869	73.90870	586.53870	-15.36616
733	6.10000	120.48885	1004.04602	-200.02824	-159.22444	949.96375	-60.34410	-194.41385	1012.96680	-204.58006	271.36771	850.20062	-467.94418	62.04110	921.19299	-622.96088	110.79225	957.04865	-664.80597	28.88531	964.71942	-698.69189	-345.40005	884.19666	-484.79648	-124.59420	922.95770	-631.48309	-168.97418	969.21631	-665.06531	-84.94000	960.52850	-695.70972	110.32643	628.60510	18.84259	-34.34384	649.51471	160.67760	-73.15285	658.55115	151.05872	-187.68488	629.31946	31.60731	192.35197	548.37799	-111.88624	182.56180	572.71887	-157.64784	213.38766	521.01440	-142.20448	201.84941	540.32532	-183.00642	208.73207	446.40753	-269.95416	254.19942	328.56940	-242.35739	230.94000	277.49026	-250.18449	239.79323	309.03635	-198.45805	230.86502	262.65140	-203.28398	185.40544	71.55706	-92.74931	134.13086	34.83070	-44.60704	202.21864	34.60654	-235.33252	-241.63394	551.22510	-118.35175	-227.91423	561.54919	-173.49773	-263.34436	517.00446	-145.79970	-256.72696	536.25806	-185.71889	-245.44284	439.13519	-280.81433	-285.78671	282.99045	-206.22906	-268.80341	249.40001	-221.02249	-273.05380	260.04315	-161.29961	-276.08051	222.81198	-169.60394	-235.72607	72.85712	-107.22845	-187.70259	37.28099	-45.28031	-243.24913	33.91949	-241.10010	146.12169	592.67987	50.75622	-227.22144	586.97009	65.20784	7.13137	657.11560	150.16367	-145.66101	590.59442	-10.57857	73.60119	589.89062	-15.86879
734	6.10833	120.74614	1009.43512	-199.38206	-159.10007	955.22766	-59.95291	-194.28267	1018.48065	-204.11790	271.68765	855.51794	-467.32742	62.25976	926.43549	-622.18750	110.71221	962.16309	-664.91504	29.13514	969.82281	-697.94513	-345.40674	889.74799	-484.36948	-125.18946	927.93640	-631.16412	-168.87422	974.38232	-664.54144	-84.68027	965.68457	-695.26361	110.95233	633.30908	18.12990	-34.28594	654.84808	160.05141	-73.08682	663.78021	150.41171	-187.52071	633.92969	30.91381	192.89191	550.76715	-112.47838	183.05710	574.69843	-158.38870	213.56943	522.93311	-142.33014	202.13106	541.93359	-183.30807	208.73438	446.99109	-269.44266	254.21834	328.77246	-242.01794	230.99596	277.83871	-249.86090	239.89963	309.21774	-197.97333	230.96024	262.83371	-202.88052	185.45665	71.52525	-92.73195	134.17921	34.82351	-44.61660	202.24702	34.61647	-235.33696	-241.49083	553.57629	-118.92744	-228.21399	563.11957	-174.07373	-263.12589	519.10992	-145.99373	-256.47003	537.96783	-186.25739	-245.13860	439.65594	-280.24359	-285.72491	283.23093	-205.76210	-268.72113	249.64986	-220.73621	-272.90347	260.15402	-161.02202	-276.04083	222.99445	-169.36255	-235.83455	72.89413	-107.17855	-187.89211	37.24964	-45.20606	-243.24821	33.95278	-241.04732	146.52757	597.03003	50.12936	-227.47835	591.66217	64.51701	7.31543	662.40173	149.50864	-145.42036	594.92572	-10.94192	73.92271	594.11639	-16.52819
